STARTFONT 2.1
FONT -FontForge-Screener SC-Book-R-Normal--32-310-75-75-P-172-ISO10646-1
SIZE 31 75 75
FONTBOUNDINGBOX 34 39 -2 -7
COMMENT "Generated by fontforge, http://fontforge.sourceforge.net"
COMMENT "Copyright 2004, Canada Type. All rights reserved."
STARTPROPERTIES 39
FOUNDRY "FontForge"
FAMILY_NAME "Screener SC"
WEIGHT_NAME "Book"
SLANT "R"
SETWIDTH_NAME "Normal"
ADD_STYLE_NAME ""
PIXEL_SIZE 32
POINT_SIZE 310
RESOLUTION_X 75
RESOLUTION_Y 75
SPACING "P"
AVERAGE_WIDTH 172
CHARSET_REGISTRY "ISO10646"
CHARSET_ENCODING "1"
FONTNAME_REGISTRY ""
CHARSET_COLLECTIONS "ISO10646-1"
FONT_NAME "ScreenerSC"
FACE_NAME "Screener SC"
COPYRIGHT "Copyright 2004, Canada Type. All rights reserved."
FONT_VERSION "2.0 October 2006"
FONT_ASCENT 26
FONT_DESCENT 6
UNDERLINE_POSITION -3
UNDERLINE_THICKNESS 2
X_HEIGHT 16
CAP_HEIGHT 22
RAW_ASCENT 800
RAW_DESCENT 200
NORM_SPACE 10
RELATIVE_WEIGHT 40
RELATIVE_SETWIDTH 50
SUPERSCRIPT_X 0
SUPERSCRIPT_Y 15
SUPERSCRIPT_SIZE 20
SUBSCRIPT_X 0
SUBSCRIPT_Y 4
SUBSCRIPT_SIZE 20
AVG_LOWERCASE_WIDTH 175
AVG_UPPERCASE_WIDTH 191
ENDPROPERTIES
CHARS 250
STARTCHAR space
ENCODING 32
SWIDTH 300 0
DWIDTH 10 0
BBX 1 1 0 0
BITMAP
00
ENDCHAR
STARTCHAR exclam
ENCODING 33
SWIDTH 231 0
DWIDTH 7 0
BBX 3 23 2 0
BITMAP
E0
E0
E0
E0
E0
E0
E0
E0
E0
E0
E0
E0
E0
E0
E0
E0
00
00
00
00
E0
E0
E0
ENDCHAR
STARTCHAR quotedbl
ENCODING 34
SWIDTH 420 0
DWIDTH 13 0
BBX 9 7 2 14
BITMAP
F780
F780
F380
7380
7380
7380
6380
ENDCHAR
STARTCHAR numbersign
ENCODING 35
SWIDTH 634 0
DWIDTH 20 0
BBX 18 15 1 4
BITMAP
01C380
01C700
038700
3FFFC0
3FFFC0
3FFFC0
071E00
0F1C00
0E1C00
FFFF00
FFFF00
FFFF00
1C7000
387000
38F000
ENDCHAR
STARTCHAR dollar
ENCODING 36
SWIDTH 634 0
DWIDTH 19 0
BBX 15 29 2 -3
BITMAP
0380
0380
0380
1FF8
3FFC
7FFE
F39E
E38E
E38E
E380
E380
E380
F380
7FF0
3FF8
1FFC
039E
038E
038E
038E
E38E
E38E
F39E
FFFC
7FF8
3FF0
0380
0380
0380
ENDCHAR
STARTCHAR percent
ENCODING 37
SWIDTH 634 0
DWIDTH 20 0
BBX 16 23 2 0
BITMAP
FC07
FC07
FC07
FC07
FC07
FC0F
001F
003E
007C
00F8
01F0
03C0
0F80
1F00
3E00
7C00
F800
F03F
E03F
E03F
E03F
E03F
E03F
ENDCHAR
STARTCHAR ampersand
ENCODING 38
SWIDTH 634 0
DWIDTH 20 0
BBX 17 26 2 -3
BITMAP
1FE000
3FE000
7FE000
F00000
E00000
E00000
E01C00
E01C00
E01C00
F01C00
7FFF80
3FFF80
7FFF80
F01C00
E01C00
E01C00
E01C00
E01C00
E01C00
F01C00
7FFC00
3FFC00
1FFE00
001F80
000F80
000780
ENDCHAR
STARTCHAR quotesingle
ENCODING 39
SWIDTH 260 0
DWIDTH 8 0
BBX 4 7 2 14
BITMAP
F0
F0
F0
70
70
70
60
ENDCHAR
STARTCHAR parenleft
ENCODING 40
SWIDTH 433 0
DWIDTH 14 0
BBX 9 23 2 0
BITMAP
0380
0780
0F80
1E00
3C00
7800
F800
F000
E000
E000
E000
E000
E000
E000
E000
F000
F800
7800
3C00
1E00
0F80
0780
0380
ENDCHAR
STARTCHAR parenright
ENCODING 41
SWIDTH 432 0
DWIDTH 14 0
BBX 9 23 3 0
BITMAP
E000
F000
F800
3C00
1E00
0F00
0F80
0780
0380
0380
0380
0380
0380
0380
0380
0780
0F80
0F00
1E00
3C00
F800
F000
E000
ENDCHAR
STARTCHAR asterisk
ENCODING 42
SWIDTH 506 0
DWIDTH 16 0
BBX 13 13 2 10
BITMAP
0600
2640
76E0
3FC0
1D80
E078
F0F8
E078
1980
3FC0
76E0
2640
0600
ENDCHAR
STARTCHAR plus
ENCODING 43
SWIDTH 633 0
DWIDTH 20 0
BBX 15 15 3 4
BITMAP
0380
0380
0380
0380
0380
0380
FFFE
FFFE
FFFE
0380
0380
0380
0380
0380
0380
ENDCHAR
STARTCHAR comma
ENCODING 44
SWIDTH 228 0
DWIDTH 7 0
BBX 3 8 2 -5
BITMAP
E0
E0
E0
E0
E0
E0
E0
E0
ENDCHAR
STARTCHAR hyphen
ENCODING 45
SWIDTH 433 0
DWIDTH 14 0
BBX 10 3 2 8
BITMAP
FFC0
FFC0
FFC0
ENDCHAR
STARTCHAR period
ENCODING 46
SWIDTH 231 0
DWIDTH 7 0
BBX 3 3 2 0
BITMAP
E0
E0
E0
ENDCHAR
STARTCHAR slash
ENCODING 47
SWIDTH 515 0
DWIDTH 16 0
BBX 21 23 -2 0
BITMAP
000078
0000F0
0000E0
0001E0
0003C0
000780
000700
000F00
001E00
003C00
003800
007800
00F000
01E000
01C000
03C000
078000
0F0000
0E0000
1E0000
3C0000
780000
F00000
ENDCHAR
STARTCHAR zero
ENCODING 48
SWIDTH 625 0
DWIDTH 20 0
BBX 16 23 2 0
BITMAP
03C0
07E0
0FF0
1E78
3C3C
781E
F00F
E007
E007
E007
E007
E007
E007
E007
E007
E007
F00F
781E
3C3C
1E78
0FF0
07E0
03C0
ENDCHAR
STARTCHAR one
ENCODING 49
SWIDTH 625 0
DWIDTH 20 0
BBX 13 23 3 0
BITMAP
0700
0700
0700
0700
7F00
7F00
7F00
0700
0700
0700
0700
0700
0700
0700
0700
0700
0700
0700
0700
0700
FFF8
FFF8
FFF8
ENDCHAR
STARTCHAR two
ENCODING 50
SWIDTH 625 0
DWIDTH 20 0
BBX 16 23 2 0
BITMAP
3FF8
3FFC
7FFE
F00F
E007
E007
0007
0007
000F
001F
007E
00FC
03F0
0FE0
1F80
7E00
FC00
F000
E000
E000
FFFF
FFFF
FFFF
ENDCHAR
STARTCHAR three
ENCODING 51
SWIDTH 625 0
DWIDTH 20 0
BBX 16 23 2 0
BITMAP
FFFF
FFFF
FFFF
0007
0007
000F
001F
003E
003C
0078
01FC
01FE
01FE
000F
0007
0007
0007
E007
E007
F00F
7FFE
3FFC
1FF8
ENDCHAR
STARTCHAR four
ENCODING 52
SWIDTH 625 0
DWIDTH 20 0
BBX 16 23 2 0
BITMAP
0078
00F8
01F8
03F8
07F8
0FB8
1F38
3E38
7C38
F838
F038
E038
E038
FFFF
FFFF
FFFF
0038
0038
0038
0038
0038
0038
0038
ENDCHAR
STARTCHAR five
ENCODING 53
SWIDTH 625 0
DWIDTH 20 0
BBX 16 23 2 0
BITMAP
FFFF
FFFF
FFFF
E000
E000
E000
E000
FFF8
FFFC
FFFE
000F
0007
0007
0007
0007
0007
0007
E007
E007
F00F
7FFE
3FFC
1FF8
ENDCHAR
STARTCHAR six
ENCODING 54
SWIDTH 625 0
DWIDTH 20 0
BBX 16 23 2 0
BITMAP
03F8
07F8
0FF8
1E00
3C00
7C00
F800
F000
E000
E000
FFF8
FFFC
FFFE
E00F
E007
E007
E007
E007
E007
F00F
7FFE
3FFC
1FF8
ENDCHAR
STARTCHAR seven
ENCODING 55
SWIDTH 625 0
DWIDTH 20 0
BBX 16 23 2 0
BITMAP
FFFF
FFFF
FFFF
0007
0007
000F
001F
003E
007C
00F8
03F0
07C0
0F80
1F00
3E00
7C00
F800
F000
E000
E000
E000
E000
E000
ENDCHAR
STARTCHAR eight
ENCODING 56
SWIDTH 625 0
DWIDTH 20 0
BBX 16 23 2 0
BITMAP
1FF8
3FFC
7FFE
F00F
E007
E007
E007
E007
E007
F00F
7FFE
3FFC
7FFE
F00F
E007
E007
E007
E007
E007
F00F
7FFE
3FFC
1FF8
ENDCHAR
STARTCHAR nine
ENCODING 57
SWIDTH 625 0
DWIDTH 20 0
BBX 16 23 2 0
BITMAP
1FF8
3FFC
7FFE
F00F
E007
E007
E007
E007
E007
E007
F007
7FFF
3FFF
1FFF
0007
0007
0007
0007
0007
000F
7FFE
7FFC
7FF8
ENDCHAR
STARTCHAR colon
ENCODING 58
SWIDTH 231 0
DWIDTH 7 0
BBX 3 13 2 0
BITMAP
E0
E0
E0
00
00
00
00
00
00
00
E0
E0
E0
ENDCHAR
STARTCHAR semicolon
ENCODING 59
SWIDTH 234 0
DWIDTH 7 0
BBX 3 18 2 -5
BITMAP
E0
E0
E0
00
00
00
00
00
00
00
E0
E0
E0
E0
E0
E0
E0
E0
ENDCHAR
STARTCHAR less
ENCODING 60
SWIDTH 432 0
DWIDTH 14 0
BBX 9 16 2 2
BITMAP
0780
0F80
0F80
1E00
3C00
7800
F000
E000
E000
F000
7800
3C00
1E00
0F80
0F80
0780
ENDCHAR
STARTCHAR equal
ENCODING 61
SWIDTH 634 0
DWIDTH 20 0
BBX 16 9 2 7
BITMAP
FFFF
FFFF
FFFF
0000
0000
0000
FFFF
FFFF
FFFF
ENDCHAR
STARTCHAR greater
ENCODING 62
SWIDTH 432 0
DWIDTH 13 0
BBX 9 16 2 2
BITMAP
F000
F000
F800
3C00
1E00
0F00
0780
0380
0380
0780
0F00
1E00
3C00
F800
F800
F000
ENDCHAR
STARTCHAR question
ENCODING 63
SWIDTH 634 0
DWIDTH 20 0
BBX 16 23 2 0
BITMAP
1FF8
3FFC
7FFE
F00F
E007
E007
0007
0007
000F
001F
003E
00FC
01F0
01E0
01C0
01C0
0000
0000
0000
0000
01C0
01C0
01C0
ENDCHAR
STARTCHAR at
ENCODING 64
SWIDTH 848 0
DWIDTH 27 0
BBX 23 25 2 -2
BITMAP
1FFFF0
3FFFF8
7FFFFC
F0001E
E0000E
E0000E
E0000E
E07FFE
E0FFFE
E1FFFE
E3C00E
E3800E
E3800E
E3800E
E3800E
E3800E
E3800E
E3800E
E3800E
E3C00E
E1FFFE
E0FFFE
E07FFE
E00000
E00000
ENDCHAR
STARTCHAR A
ENCODING 65
SWIDTH 624 0
DWIDTH 20 0
BBX 16 23 2 0
BITMAP
03C0
07E0
0FF0
1E78
3C3C
781E
F00F
E007
E007
E007
E007
E007
E007
FFFF
FFFF
FFFF
E007
E007
E007
E007
E007
E007
E007
ENDCHAR
STARTCHAR B
ENCODING 66
SWIDTH 629 0
DWIDTH 20 0
BBX 16 23 2 0
BITMAP
FFF8
FFFC
FFFE
E00F
E007
E007
E007
E007
E007
E00F
FFFE
FFFC
FFFE
E00F
E007
E007
E007
E007
E007
E00F
FFFE
FFFC
FFF8
ENDCHAR
STARTCHAR C
ENCODING 67
SWIDTH 614 0
DWIDTH 19 0
BBX 16 23 2 0
BITMAP
1FFC
3FFE
7FFF
F00F
E007
E007
E000
E000
E000
E000
E000
E000
E000
E000
E000
E000
E000
E007
E007
F00F
7FFF
3FFE
1FFC
ENDCHAR
STARTCHAR D
ENCODING 68
SWIDTH 654 0
DWIDTH 21 0
BBX 18 23 1 0
BITMAP
FFFE00
FFFF00
FFFF80
1C03C0
1C01C0
1C01C0
1C01C0
1C01C0
1C01C0
1C01C0
1C01C0
1C01C0
1C01C0
1C01C0
1C01C0
1C01C0
1C01C0
1C01C0
1C01C0
1C03C0
FFFF80
FFFF00
FFFE00
ENDCHAR
STARTCHAR E
ENCODING 69
SWIDTH 599 0
DWIDTH 19 0
BBX 16 23 2 0
BITMAP
FFFF
FFFF
FFFF
E000
E000
E000
E000
E000
E000
E000
FFF8
FFF8
FFF8
E000
E000
E000
E000
E000
E000
E000
FFFF
FFFF
FFFF
ENDCHAR
STARTCHAR F
ENCODING 70
SWIDTH 548 0
DWIDTH 18 0
BBX 14 23 2 0
BITMAP
FFFC
FFFC
FFFC
E000
E000
E000
E000
E000
E000
E000
FFE0
FFE0
FFE0
E000
E000
E000
E000
E000
E000
E000
E000
E000
E000
ENDCHAR
STARTCHAR G
ENCODING 71
SWIDTH 614 0
DWIDTH 20 0
BBX 16 23 2 0
BITMAP
1FF8
3FFC
7FFE
F00F
E007
E007
E000
E000
E000
E000
E000
E03F
E03F
E03F
E007
E007
E007
E007
E007
F007
7FFF
3FFF
1FFF
ENDCHAR
STARTCHAR H
ENCODING 72
SWIDTH 634 0
DWIDTH 20 0
BBX 16 23 2 0
BITMAP
E007
E007
E007
E007
E007
E007
E007
E007
E007
E007
FFFF
FFFF
FFFF
E007
E007
E007
E007
E007
E007
E007
E007
E007
E007
ENDCHAR
STARTCHAR I
ENCODING 73
SWIDTH 422 0
DWIDTH 14 0
BBX 11 23 1 0
BITMAP
FFE0
FFE0
FFE0
0E00
0E00
0E00
0E00
0E00
0E00
0E00
0E00
0E00
0E00
0E00
0E00
0E00
0E00
0E00
0E00
0E00
FFE0
FFE0
FFE0
ENDCHAR
STARTCHAR J
ENCODING 74
SWIDTH 468 0
DWIDTH 15 0
BBX 13 23 0 0
BITMAP
0038
0038
0038
0038
0038
0038
0038
0038
0038
0038
0038
0038
0038
0038
0038
0038
0038
E038
E038
F078
7FF0
3FE0
1FC0
ENDCHAR
STARTCHAR K
ENCODING 75
SWIDTH 604 0
DWIDTH 19 0
BBX 16 23 2 0
BITMAP
E00F
E01F
E03F
E07C
E0F8
E1F0
E3E0
E7C0
EF80
FF00
FE00
FC00
FE00
FF00
EF80
E7C0
E3E0
E1F0
E0F8
E07C
E03F
E01F
E00F
ENDCHAR
STARTCHAR L
ENCODING 76
SWIDTH 488 0
DWIDTH 16 0
BBX 13 23 2 0
BITMAP
E000
E000
E000
E000
E000
E000
E000
E000
E000
E000
E000
E000
E000
E000
E000
E000
E000
E000
E000
E000
FFF8
FFF8
FFF8
ENDCHAR
STARTCHAR M
ENCODING 77
SWIDTH 634 0
DWIDTH 20 0
BBX 16 23 2 0
BITMAP
E007
F00F
F00F
F81F
F81F
FC3F
FC3F
FE7F
FE7F
EFF7
EFF7
E7E7
E7C7
E3C7
E387
E187
E007
E007
E007
E007
E007
E007
E007
ENDCHAR
STARTCHAR N
ENCODING 78
SWIDTH 634 0
DWIDTH 20 0
BBX 16 23 2 0
BITMAP
F007
F807
FC07
FE07
FF87
EFC7
E7E7
E3F7
E1FF
E07F
E03F
E01F
E00F
E007
E007
E007
E007
E007
E007
E007
E007
E007
E007
ENDCHAR
STARTCHAR O
ENCODING 79
SWIDTH 624 0
DWIDTH 20 0
BBX 16 23 2 0
BITMAP
1FF8
3FFC
7FFE
F00F
E007
E007
E007
E007
E007
E007
E007
E007
E007
E007
E007
E007
E007
E007
E007
F00F
7FFE
3FFC
1FF8
ENDCHAR
STARTCHAR P
ENCODING 80
SWIDTH 609 0
DWIDTH 19 0
BBX 16 23 2 0
BITMAP
FFF8
FFFC
FFFE
E00F
E007
E007
E007
E007
E007
E007
E007
E00F
FFFE
FFFC
FFF8
E000
E000
E000
E000
E000
E000
E000
E000
ENDCHAR
STARTCHAR Q
ENCODING 81
SWIDTH 619 0
DWIDTH 19 0
BBX 15 23 2 0
BITMAP
1FF8
3FFC
7FFE
F01E
E00E
E00E
E00E
E00E
E00E
E00E
E00E
E00E
E00E
E00E
E38E
E38E
E3CE
E1E0
E0F0
F078
7FBE
3F9E
1F8E
ENDCHAR
STARTCHAR R
ENCODING 82
SWIDTH 614 0
DWIDTH 19 0
BBX 16 23 2 0
BITMAP
FFF8
FFFC
FFFE
E00F
E007
E007
E007
E007
E007
E00F
FFFE
FFFC
FFF8
E7C0
E3E0
E1F0
E0F8
E07C
E03E
E01F
E00F
E007
E007
ENDCHAR
STARTCHAR S
ENCODING 83
SWIDTH 584 0
DWIDTH 18 0
BBX 16 23 1 0
BITMAP
1FF8
3FFC
7FFE
F00F
E007
E007
E000
E000
E000
F000
7FF8
3FFC
1FFE
000F
0007
0007
0007
E007
E007
F00F
7FFE
3FFC
1FF8
ENDCHAR
STARTCHAR T
ENCODING 84
SWIDTH 504 0
DWIDTH 16 0
BBX 15 23 1 0
BITMAP
FFFE
FFFE
FFFE
0380
0380
0380
0380
0380
0380
0380
0380
0380
0380
0380
0380
0380
0380
0380
0380
0380
0380
0380
0380
ENDCHAR
STARTCHAR U
ENCODING 85
SWIDTH 634 0
DWIDTH 20 0
BBX 16 23 2 0
BITMAP
E007
E007
E007
E007
E007
E007
E007
E007
E007
E007
E007
E007
E007
E007
E007
E007
E007
E007
E007
F00F
7FFE
3FFC
1FF8
ENDCHAR
STARTCHAR V
ENCODING 86
SWIDTH 624 0
DWIDTH 20 0
BBX 16 23 2 0
BITMAP
E007
E007
E007
E007
E007
E007
E007
E007
E007
E007
E007
E007
E007
E007
F00F
F00F
781E
381C
3C3C
1C38
1FF8
0FF0
0FE0
ENDCHAR
STARTCHAR W
ENCODING 87
SWIDTH 734 0
DWIDTH 23 0
BBX 19 23 2 0
BITMAP
E000E0
E000E0
E000E0
E000E0
E000E0
E000E0
E000E0
E0E0E0
E0E0E0
E0E0E0
E0E0E0
E0E0E0
E0E0E0
E0E0E0
E0E0E0
E0E0E0
E0E0E0
E0E0E0
E0E0E0
F0E1E0
7FFFC0
3FFF80
1FBF00
ENDCHAR
STARTCHAR X
ENCODING 88
SWIDTH 614 0
DWIDTH 20 0
BBX 16 23 2 0
BITMAP
E007
E007
E007
E007
E007
E007
E007
F00F
F81F
7C3E
3FFC
1FF8
3FFC
7C3E
F81F
F00F
E007
E007
E007
E007
E007
E007
E007
ENDCHAR
STARTCHAR Y
ENCODING 89
SWIDTH 584 0
DWIDTH 17 0
BBX 15 23 1 0
BITMAP
E00E
E00E
E00E
E00E
E00E
E00E
E00E
F01E
F83E
7C7C
3FF8
1FF0
0FE0
0380
0380
0380
0380
0380
0380
0380
0380
0380
0380
ENDCHAR
STARTCHAR Z
ENCODING 90
SWIDTH 584 0
DWIDTH 18 0
BBX 16 23 1 0
BITMAP
FFFF
FFFF
FFFF
0007
0007
000F
001F
003E
007C
00F8
03F0
07E0
0F80
1F00
3E00
7C00
F800
F000
E000
E000
FFFF
FFFF
FFFF
ENDCHAR
STARTCHAR bracketleft
ENCODING 91
SWIDTH 382 0
DWIDTH 12 0
BBX 8 23 2 0
BITMAP
FF
FF
FF
E0
E0
E0
E0
E0
E0
E0
E0
E0
E0
E0
E0
E0
E0
E0
E0
E0
FF
FF
FF
ENDCHAR
STARTCHAR backslash
ENCODING 92
SWIDTH 461 0
DWIDTH 15 0
BBX 11 23 2 0
BITMAP
F000
7000
7000
7000
7800
3800
3800
3C00
1C00
1C00
1E00
0E00
0E00
0F00
0700
0700
0780
0380
0380
03C0
01C0
01C0
01E0
ENDCHAR
STARTCHAR bracketright
ENCODING 93
SWIDTH 382 0
DWIDTH 12 0
BBX 8 23 2 0
BITMAP
FF
FF
FF
07
07
07
07
07
07
07
07
07
07
07
07
07
07
07
07
07
FF
FF
FF
ENDCHAR
STARTCHAR asciicircum
ENCODING 94
SWIDTH 465 0
DWIDTH 15 0
BBX 13 9 1 12
BITMAP
0200
0700
0F80
1FC0
3DE0
78F0
F0F8
E078
4030
ENDCHAR
STARTCHAR underscore
ENCODING 95
SWIDTH 431 0
DWIDTH 14 0
BBX 14 3 0 -2
BITMAP
FFFC
FFFC
FFFC
ENDCHAR
STARTCHAR grave
ENCODING 96
SWIDTH 282 0
DWIDTH 9 0
BBX 5 5 2 19
BITMAP
40
E0
70
38
10
ENDCHAR
STARTCHAR a
ENCODING 97
SWIDTH 564 0
DWIDTH 18 0
BBX 14 17 2 0
BITMAP
0300
0780
0FC0
1FE0
3DF0
7878
F03C
E01C
E01C
E01C
FFFC
FFFC
FFFC
E01C
E01C
E01C
E01C
ENDCHAR
STARTCHAR b
ENCODING 98
SWIDTH 569 0
DWIDTH 18 0
BBX 14 17 2 0
BITMAP
FFE0
FFF0
FFF8
E03C
E01C
E01C
E03C
FFF8
FFF0
FFF8
E03C
E01C
E01C
E03C
FFF8
FFF0
FFE0
ENDCHAR
STARTCHAR c
ENCODING 99
SWIDTH 554 0
DWIDTH 17 0
BBX 14 17 2 0
BITMAP
1FF0
3FF8
7FFC
F03C
E01C
E01C
E000
E000
E000
E000
E000
E01C
E01C
F03C
7FFC
3FF8
1FF0
ENDCHAR
STARTCHAR d
ENCODING 100
SWIDTH 594 0
DWIDTH 19 0
BBX 16 17 1 0
BITMAP
FFF8
FFFC
FFFE
1C0F
1C07
1C07
1C07
1C07
1C07
1C07
1C07
1C07
1C07
1C0F
FFFE
FFFC
FFF8
ENDCHAR
STARTCHAR e
ENCODING 101
SWIDTH 539 0
DWIDTH 17 0
BBX 14 17 2 0
BITMAP
FFFC
FFFC
FFFC
E000
E000
E000
E000
FFE0
FFE0
FFE0
E000
E000
E000
E000
FFFC
FFFC
FFFC
ENDCHAR
STARTCHAR f
ENCODING 102
SWIDTH 488 0
DWIDTH 16 0
BBX 12 17 2 0
BITMAP
FFF0
FFF0
FFF0
E000
E000
E000
E000
FF80
FF80
FF80
E000
E000
E000
E000
E000
E000
E000
ENDCHAR
STARTCHAR g
ENCODING 103
SWIDTH 554 0
DWIDTH 18 0
BBX 14 17 2 0
BITMAP
1FF0
3FF8
7FF8
F03C
E01C
E01C
E000
E000
E0FC
E0FC
E0FC
E01C
E01C
F01C
7FFC
3FFC
1FFC
ENDCHAR
STARTCHAR h
ENCODING 104
SWIDTH 574 0
DWIDTH 18 0
BBX 14 17 2 0
BITMAP
E01C
E01C
E01C
E01C
E01C
E01C
E01C
FFFC
FFFC
FFFC
E01C
E01C
E01C
E01C
E01C
E01C
E01C
ENDCHAR
STARTCHAR i
ENCODING 105
SWIDTH 362 0
DWIDTH 12 0
BBX 9 17 1 0
BITMAP
FF80
FF80
FF80
1C00
1C00
1C00
1C00
1C00
1C00
1C00
1C00
1C00
1C00
1C00
FF80
FF80
FF80
ENDCHAR
STARTCHAR j
ENCODING 106
SWIDTH 408 0
DWIDTH 13 0
BBX 11 17 0 0
BITMAP
00E0
00E0
00E0
00E0
00E0
00E0
00E0
00E0
00E0
00E0
00E0
E0E0
E0E0
F1E0
FFC0
7F80
3F00
ENDCHAR
STARTCHAR k
ENCODING 107
SWIDTH 504 0
DWIDTH 16 0
BBX 13 17 2 0
BITMAP
E038
E078
E0F8
E1E0
E3C0
E780
EF00
FE00
FC00
FE00
EF00
E780
E3C0
E1E0
E0F8
E078
E038
ENDCHAR
STARTCHAR l
ENCODING 108
SWIDTH 428 0
DWIDTH 14 0
BBX 11 17 2 0
BITMAP
E000
E000
E000
E000
E000
E000
E000
E000
E000
E000
E000
E000
E000
E000
FFE0
FFE0
FFE0
ENDCHAR
STARTCHAR m
ENCODING 109
SWIDTH 574 0
DWIDTH 18 0
BBX 14 17 2 0
BITMAP
E01C
F03C
F03C
F87C
F8FC
FCFC
FDFC
EFDC
EFDC
EF9C
E79C
E71C
E31C
E31C
E01C
E01C
E01C
ENDCHAR
STARTCHAR n
ENCODING 110
SWIDTH 574 0
DWIDTH 18 0
BBX 14 17 2 0
BITMAP
F01C
F81C
FC1C
FE1C
FF1C
EF9C
E7FC
E3FC
E1FC
E07C
E03C
E01C
E01C
E01C
E01C
E01C
E01C
ENDCHAR
STARTCHAR o
ENCODING 111
SWIDTH 564 0
DWIDTH 18 0
BBX 14 17 2 0
BITMAP
1FE0
3FF0
7FF8
F03C
E01C
E01C
E01C
E01C
E01C
E01C
E01C
E01C
E01C
F03C
7FF8
3FF0
1FE0
ENDCHAR
STARTCHAR p
ENCODING 112
SWIDTH 529 0
DWIDTH 16 0
BBX 13 17 2 0
BITMAP
FFC0
FFE0
FFF0
E078
E038
E038
E038
E038
E078
FFF0
FFE0
FFC0
E000
E000
E000
E000
E000
ENDCHAR
STARTCHAR q
ENCODING 113
SWIDTH 559 0
DWIDTH 18 0
BBX 14 17 2 0
BITMAP
1FE0
3FF0
7FFC
F03C
E01C
E01C
E01C
E01C
E39C
E39C
E3DC
E1E0
E0F0
F078
7FBC
3F9C
1F9C
ENDCHAR
STARTCHAR r
ENCODING 114
SWIDTH 554 0
DWIDTH 17 0
BBX 14 17 2 0
BITMAP
FFE0
FFF0
FFF8
E03C
E01C
E01C
E03C
FFF8
FFF0
FFF0
EF80
E7C0
E1E0
E0F8
E07C
E03C
E01C
ENDCHAR
STARTCHAR s
ENCODING 115
SWIDTH 524 0
DWIDTH 16 0
BBX 14 17 1 0
BITMAP
3FF0
3FF8
7FFC
F03C
E01C
E01C
F000
7FE0
3FF0
1FF8
003C
E01C
E01C
F03C
FFF8
7FF0
3FF0
ENDCHAR
STARTCHAR t
ENCODING 116
SWIDTH 444 0
DWIDTH 14 0
BBX 14 17 1 0
BITMAP
FFFC
FFFC
FFFC
0700
0700
0700
0700
0700
0700
0700
0700
0700
0700
0700
0700
0700
0700
ENDCHAR
STARTCHAR u
ENCODING 117
SWIDTH 574 0
DWIDTH 18 0
BBX 14 17 2 0
BITMAP
E01C
E01C
E01C
E01C
E01C
E01C
E01C
E01C
E01C
E01C
E01C
E01C
E01C
F03C
7FF8
3FF0
1FE0
ENDCHAR
STARTCHAR v
ENCODING 118
SWIDTH 564 0
DWIDTH 18 0
BBX 14 17 2 0
BITMAP
E01C
E01C
E01C
E01C
E01C
E01C
E01C
E01C
E01C
E01C
E01C
F03C
7878
3CF0
1FE0
1FE0
0FC0
ENDCHAR
STARTCHAR w
ENCODING 119
SWIDTH 674 0
DWIDTH 21 0
BBX 17 17 2 0
BITMAP
E00380
E00380
E00380
E00380
E1C380
E1C380
E1C380
E1C380
E1C380
E1C380
E1C380
E1C380
E1C380
F1C780
7FFF00
3FFE00
1F7C00
ENDCHAR
STARTCHAR x
ENCODING 120
SWIDTH 554 0
DWIDTH 18 0
BBX 14 17 2 0
BITMAP
E01C
E01C
E01C
E01C
F03C
F87C
7CF8
3FF0
1FE0
3FF0
7CF8
F87C
F03C
E01C
E01C
E01C
E01C
ENDCHAR
STARTCHAR y
ENCODING 121
SWIDTH 524 0
DWIDTH 16 0
BBX 14 17 1 0
BITMAP
E01C
E01C
E01C
E01C
F03C
F87C
7CF8
3FF0
1FE0
07C0
0380
0380
0380
0380
0380
0380
0380
ENDCHAR
STARTCHAR z
ENCODING 122
SWIDTH 524 0
DWIDTH 17 0
BBX 14 17 1 0
BITMAP
FFFC
FFFC
FFFC
001C
007C
00F8
01F0
03E0
0FC0
1F00
3E00
FC00
F000
E000
FFFC
FFFC
FFFC
ENDCHAR
STARTCHAR braceleft
ENCODING 123
SWIDTH 465 0
DWIDTH 15 0
BBX 12 23 1 0
BITMAP
0FF0
0FF0
0FF0
0E00
0E00
0E00
0E00
1E00
3E00
7C00
F800
F000
F800
7C00
3E00
1E00
0E00
0E00
0E00
0E00
0FF0
0FF0
0FF0
ENDCHAR
STARTCHAR bar
ENCODING 124
SWIDTH 230 0
DWIDTH 7 0
BBX 3 29 2 -6
BITMAP
E0
E0
E0
E0
E0
E0
E0
E0
E0
E0
E0
E0
E0
E0
E0
E0
E0
E0
E0
E0
E0
E0
E0
E0
E0
E0
E0
E0
E0
ENDCHAR
STARTCHAR braceright
ENCODING 125
SWIDTH 465 0
DWIDTH 15 0
BBX 12 23 2 0
BITMAP
FF00
FF00
FF00
0700
0700
0700
0700
0780
07C0
03E0
01F0
00F0
01F0
03E0
07C0
0780
0700
0700
0700
0700
FF00
FF00
FF00
ENDCHAR
STARTCHAR asciitilde
ENCODING 126
SWIDTH 397 0
DWIDTH 13 0
BBX 10 5 2 17
BITMAP
1880
39C0
7F80
EF00
4600
ENDCHAR
STARTCHAR nonbreakingspace
ENCODING 160
SWIDTH 300 0
DWIDTH 10 0
BBX 1 1 0 0
BITMAP
00
ENDCHAR
STARTCHAR exclamdown
ENCODING 161
SWIDTH 231 0
DWIDTH 7 0
BBX 3 22 2 -3
BITMAP
E0
E0
E0
00
00
00
E0
E0
E0
E0
E0
E0
E0
E0
E0
E0
E0
E0
E0
E0
E0
E0
ENDCHAR
STARTCHAR cent
ENCODING 162
SWIDTH 552 0
DWIDTH 18 0
BBX 14 22 2 0
BITMAP
01C0
01C0
01C0
1FFC
3FFC
7FFC
F000
E000
E000
E000
E000
E000
E000
E000
E000
F000
7FFC
3FFC
1FFC
01C0
01C0
01C0
ENDCHAR
STARTCHAR sterling
ENCODING 163
SWIDTH 634 0
DWIDTH 20 0
BBX 16 23 2 0
BITMAP
07FC
0FFE
1FFF
3C0F
3807
3807
3800
3800
3800
3800
FFE0
FFE0
FFE0
3800
3800
3800
3800
3800
3800
3800
FFFF
FFFF
FFFF
ENDCHAR
STARTCHAR currency
ENCODING 164
SWIDTH 634 0
DWIDTH 20 0
BBX 18 23 0 0
BITMAP
07FF00
0FFF80
1FFFC0
3C03C0
3801C0
3801C0
380000
380000
FFF000
FFF000
FFF000
380000
380000
FFF000
FFF000
FFF000
380000
3801C0
3801C0
3C03C0
1FFFC0
0FFF80
07FF00
ENDCHAR
STARTCHAR yen
ENCODING 165
SWIDTH 634 0
DWIDTH 19 0
BBX 15 23 2 0
BITMAP
E00E
E00E
E00E
E00E
E00E
E00E
E00E
F01E
F83E
7C7C
3FF8
1FF0
0FE0
0380
0380
0380
FFFE
FFFE
FFFE
0380
0380
0380
0380
ENDCHAR
STARTCHAR brokenbar
ENCODING 166
SWIDTH 230 0
DWIDTH 7 0
BBX 3 29 2 -6
BITMAP
E0
E0
E0
E0
E0
E0
E0
E0
E0
E0
E0
00
00
00
00
00
00
00
E0
E0
E0
E0
E0
E0
E0
E0
E0
E0
E0
ENDCHAR
STARTCHAR section
ENCODING 167
SWIDTH 634 0
DWIDTH 20 0
BBX 16 29 2 -6
BITMAP
1FFC
3FFE
7FFF
F00F
E007
E007
E000
E000
E000
F000
7FFC
3FFE
7FFE
F00F
F00F
F00F
F00F
F00F
7FFE
3FFC
1FFF
000F
0007
E007
E007
F00F
7FFE
3FFC
1FF8
ENDCHAR
STARTCHAR dieresis
ENCODING 168
SWIDTH 432 0
DWIDTH 14 0
BBX 10 3 2 20
BITMAP
E1C0
E1C0
E1C0
ENDCHAR
STARTCHAR copyright
ENCODING 169
SWIDTH 848 0
DWIDTH 27 0
BBX 23 23 2 0
BITMAP
1FFFF0
3FFFF8
7FFFFC
F0001E
E0000E
E07F8E
E0FF8E
E1FF8E
E3C00E
E3800E
E3800E
E3800E
E3800E
E3800E
E3C00E
E1FF8E
E0FF8E
E07F8E
E0000E
F0001E
7FFFFC
3FFFF8
1FFFF0
ENDCHAR
STARTCHAR ordfeminine
ENCODING 170
SWIDTH 477 0
DWIDTH 15 0
BBX 11 17 2 4
BITMAP
7F80
7FC0
7FE0
01E0
3FE0
7FE0
FFE0
F0E0
F0E0
FFE0
7FE0
3FE0
0000
0000
FFE0
FFE0
FFE0
ENDCHAR
STARTCHAR guillemotleft
ENCODING 171
SWIDTH 662 0
DWIDTH 21 0
BBX 17 16 2 2
BITMAP
03C780
07CF80
0FCF80
1E1E00
3C3C00
787800
F0F000
E0E000
E0E000
F0F000
787800
3C3C00
1E1E00
0FCF80
07C780
03C780
ENDCHAR
STARTCHAR logicalnot
ENCODING 172
SWIDTH 634 0
DWIDTH 20 0
BBX 16 7 2 6
BITMAP
FFFF
FFFF
FFFF
0007
0007
0007
0007
ENDCHAR
STARTCHAR registered
ENCODING 174
SWIDTH 456 0
DWIDTH 15 0
BBX 11 13 2 10
BITMAP
FF80
FF80
FFC0
C1E0
C0E0
C1E0
FFC0
FF80
FF80
C780
C3C0
C1E0
C0E0
ENDCHAR
STARTCHAR macron
ENCODING 175
SWIDTH 439 0
DWIDTH 14 0
BBX 10 3 2 19
BITMAP
FFC0
FFC0
FFC0
ENDCHAR
STARTCHAR degree
ENCODING 176
SWIDTH 341 0
DWIDTH 11 0
BBX 7 8 2 14
BITMAP
38
7C
FE
C6
C6
FE
7C
38
ENDCHAR
STARTCHAR plusminus
ENCODING 177
SWIDTH 633 0
DWIDTH 20 0
BBX 16 21 2 0
BITMAP
01C0
01C0
01C0
01C0
01C0
01C0
7FFF
7FFF
7FFF
01C0
01C0
01C0
01C0
01C0
01C0
0000
0000
0000
FFFF
FFFF
FFFF
ENDCHAR
STARTCHAR twosuperior
ENCODING 178
SWIDTH 439 0
DWIDTH 14 0
BBX 10 14 2 9
BITMAP
3F00
7F80
FFC0
E3C0
C1C0
03C0
0780
0F00
3E00
7800
F000
FFC0
FFC0
FFC0
ENDCHAR
STARTCHAR threesuperior
ENCODING 179
SWIDTH 439 0
DWIDTH 14 0
BBX 11 14 2 9
BITMAP
FFE0
FFE0
FFE0
03C0
0780
0F80
1F80
1F80
1FC0
C1E0
E1E0
FFC0
7F80
3F80
ENDCHAR
STARTCHAR acute
ENCODING 180
SWIDTH 282 0
DWIDTH 9 0
BBX 5 5 2 19
BITMAP
10
38
70
E0
40
ENDCHAR
STARTCHAR mu
ENCODING 181
SWIDTH 634 0
DWIDTH 20 0
BBX 16 22 2 -6
BITMAP
E007
E007
E007
E007
E007
E007
E007
E007
E007
E007
E007
E007
E00F
FFFF
FFFE
FFFC
E000
E000
E000
E000
E000
E000
ENDCHAR
STARTCHAR paragraph
ENCODING 182
SWIDTH 634 0
DWIDTH 21 0
BBX 17 23 2 0
BITMAP
1FE380
3FE380
7FE380
FFE380
FFE380
FFE380
FFE380
FFE380
FFE380
FFE380
FFE380
FFE380
7FE380
3FE380
1FE380
00E380
00E380
00E380
00E380
00E380
00E380
00E380
00E380
ENDCHAR
STARTCHAR periodcentered
ENCODING 183
SWIDTH 231 0
DWIDTH 7 0
BBX 3 3 2 10
BITMAP
E0
E0
E0
ENDCHAR
STARTCHAR cedilla
ENCODING 184
SWIDTH 412 0
DWIDTH 13 0
BBX 6 9 6 -7
BITMAP
C0
C0
F0
F8
FC
0C
FC
F8
F0
ENDCHAR
STARTCHAR onesuperior
ENCODING 185
SWIDTH 326 0
DWIDTH 10 0
BBX 6 14 2 9
BITMAP
30
30
70
70
70
30
30
30
30
30
30
FC
FC
FC
ENDCHAR
STARTCHAR ordmasculine
ENCODING 186
SWIDTH 491 0
DWIDTH 16 0
BBX 12 17 2 4
BITMAP
1F80
3FC0
7FE0
F0F0
E070
E070
E070
E070
F0F0
7FE0
3FC0
1F80
0000
0000
7FF0
7FF0
7FF0
ENDCHAR
STARTCHAR guillemotright
ENCODING 187
SWIDTH 662 0
DWIDTH 20 0
BBX 17 16 2 2
BITMAP
F1E000
F1F000
F9F800
3C3C00
1E1E00
0F0F00
078780
038380
038380
078780
0F0F00
1E1E00
3C3C00
F9F800
F9F000
F1E000
ENDCHAR
STARTCHAR onequarter
ENCODING 188
SWIDTH 793 0
DWIDTH 25 0
BBX 22 23 2 0
BITMAP
000078
3000F0
7000E0
7001E0
7003C0
300780
300700
300F00
301E00
303C00
303870
FC78F0
FCF0F0
FDE1F0
01C3B0
03C730
078E30
0F0C30
0E0FFC
1E0FFC
3C0FFC
780030
F00030
ENDCHAR
STARTCHAR onehalf
ENCODING 189
SWIDTH 872 0
DWIDTH 28 0
BBX 24 23 2 0
BITMAP
000078
3000F0
7000E0
7001E0
7003C0
300780
300700
300F00
301E00
303C00
3039FC
FC79FE
FCF38F
FDE307
01C00F
03C01E
078078
0F00F0
0E01E0
1E03C0
3C03FF
7803FF
F003FF
ENDCHAR
STARTCHAR threequarters
ENCODING 190
SWIDTH 883 0
DWIDTH 28 0
BBX 25 23 2 0
BITMAP
FFC00F00
FFC00E00
FFC01E00
03C03C00
07807800
0F007000
1F00F000
1F81E000
1FC3C000
C1C38000
E1C78E00
FFCF1E00
7F9E1E00
3F1C3E00
003C7600
0078E600
00F1C600
00E18600
01E1FF80
03C1FF80
0781FF80
07000600
0F000600
ENDCHAR
STARTCHAR questiondown
ENCODING 191
SWIDTH 634 0
DWIDTH 19 0
BBX 15 22 2 -3
BITMAP
0380
0380
0380
0000
0000
0000
0380
0380
0780
0F80
3F00
7C00
F800
F000
E000
E000
E00E
E00E
F01E
FFFE
7FFC
3FF8
ENDCHAR
STARTCHAR Agrave
ENCODING 192
SWIDTH 624 0
DWIDTH 20 0
BBX 16 31 2 0
BITMAP
0100
0300
0380
01C0
00E0
0080
0000
0000
03C0
07E0
0FF0
1E78
3C3C
781E
F00F
E007
E007
E007
E007
E007
E007
FFFF
FFFF
FFFF
E007
E007
E007
E007
E007
E007
E007
ENDCHAR
STARTCHAR Aacute
ENCODING 193
SWIDTH 624 0
DWIDTH 20 0
BBX 16 31 2 0
BITMAP
0080
00C0
01E0
0380
0300
0200
0000
0000
03C0
07E0
0FF0
1E78
3C3C
781E
F00F
E007
E007
E007
E007
E007
E007
FFFF
FFFF
FFFF
E007
E007
E007
E007
E007
E007
E007
ENDCHAR
STARTCHAR Acircumflex
ENCODING 194
SWIDTH 624 0
DWIDTH 20 0
BBX 16 31 2 0
BITMAP
0180
03C0
03E0
07F0
0E60
0440
0000
0000
03C0
07E0
0FF0
1E78
3C3C
781E
F00F
E007
E007
E007
E007
E007
E007
FFFF
FFFF
FFFF
E007
E007
E007
E007
E007
E007
E007
ENDCHAR
STARTCHAR Atilde
ENCODING 195
SWIDTH 624 0
DWIDTH 20 0
BBX 16 31 2 0
BITMAP
0210
0710
0FB8
1DF0
18E0
10C0
0000
0000
03C0
07E0
0FF0
1E78
3C3C
781E
F00F
E007
E007
E007
E007
E007
E007
FFFF
FFFF
FFFF
E007
E007
E007
E007
E007
E007
E007
ENDCHAR
STARTCHAR Adieresis
ENCODING 196
SWIDTH 624 0
DWIDTH 20 0
BBX 16 29 2 0
BITMAP
1C38
1C38
1C38
0000
0000
0000
03C0
07E0
0FF0
1E78
3C3C
781E
F00F
E007
E007
E007
E007
E007
E007
FFFF
FFFF
FFFF
E007
E007
E007
E007
E007
E007
E007
ENDCHAR
STARTCHAR Aring
ENCODING 197
SWIDTH 624 0
DWIDTH 20 0
BBX 16 32 2 0
BITMAP
01C0
03E0
07F0
0630
0630
07F0
03E0
01C0
0000
03C0
07E0
0FF0
1E78
3C3C
781E
F00F
E007
E007
E007
E007
E007
E007
FFFF
FFFF
FFFF
E007
E007
E007
E007
E007
E007
E007
ENDCHAR
STARTCHAR AE
ENCODING 198
SWIDTH 754 0
DWIDTH 24 0
BBX 21 23 2 0
BITMAP
03FFF8
07FFF8
0FFFF8
1FF800
3E3800
7C3800
F83800
F03800
E03800
E03800
E03FE0
E03FE0
E03FE0
FFF800
FFF800
FFF800
FFF800
E03800
E03800
E03800
E03FF8
E03FF8
E03FF8
ENDCHAR
STARTCHAR Ccedilla
ENCODING 199
SWIDTH 614 0
DWIDTH 19 0
BBX 16 30 2 -7
BITMAP
1FF8
3FFC
7FFE
F00F
E007
E007
E000
E000
E000
E000
E000
E000
E000
E000
E000
E000
E000
E007
E007
F00F
7FFE
3FFC
1FF8
01E0
01F0
01F8
0018
01F8
01F0
01F0
ENDCHAR
STARTCHAR Egrave
ENCODING 200
SWIDTH 599 0
DWIDTH 19 0
BBX 16 31 2 0
BITMAP
0100
0300
0380
01C0
00E0
0080
0000
0000
FFFF
FFFF
FFFF
E000
E000
E000
E000
E000
E000
E000
FFF8
FFF8
FFF8
E000
E000
E000
E000
E000
E000
E000
FFFF
FFFF
FFFF
ENDCHAR
STARTCHAR Eacute
ENCODING 201
SWIDTH 599 0
DWIDTH 19 0
BBX 16 31 2 0
BITMAP
0080
00C0
01E0
0380
0300
0200
0000
0000
FFFF
FFFF
FFFF
E000
E000
E000
E000
E000
E000
E000
FFF8
FFF8
FFF8
E000
E000
E000
E000
E000
E000
E000
FFFF
FFFF
FFFF
ENDCHAR
STARTCHAR Ecircumflex
ENCODING 202
SWIDTH 599 0
DWIDTH 19 0
BBX 16 31 2 0
BITMAP
0180
03C0
03E0
07F0
0E60
0440
0000
0000
FFFF
FFFF
FFFF
E000
E000
E000
E000
E000
E000
E000
FFF8
FFF8
FFF8
E000
E000
E000
E000
E000
E000
E000
FFFF
FFFF
FFFF
ENDCHAR
STARTCHAR Edieresis
ENCODING 203
SWIDTH 599 0
DWIDTH 19 0
BBX 16 29 2 0
BITMAP
1C38
1C38
1C38
0000
0000
0000
FFFF
FFFF
FFFF
E000
E000
E000
E000
E000
E000
E000
FFF8
FFF8
FFF8
E000
E000
E000
E000
E000
E000
E000
FFFF
FFFF
FFFF
ENDCHAR
STARTCHAR Igrave
ENCODING 204
SWIDTH 422 0
DWIDTH 14 0
BBX 11 31 1 0
BITMAP
0800
0C00
1E00
0F00
0600
0400
0000
0000
FFE0
FFE0
FFE0
0E00
0E00
0E00
0E00
0E00
0E00
0E00
0E00
0E00
0E00
0E00
0E00
0E00
0E00
0E00
0E00
0E00
FFE0
FFE0
FFE0
ENDCHAR
STARTCHAR Iacute
ENCODING 205
SWIDTH 422 0
DWIDTH 14 0
BBX 11 31 1 0
BITMAP
0200
0300
0780
0F00
0600
0400
0000
0000
FFE0
FFE0
FFE0
0E00
0E00
0E00
0E00
0E00
0E00
0E00
0E00
0E00
0E00
0E00
0E00
0E00
0E00
0E00
0E00
0E00
FFE0
FFE0
FFE0
ENDCHAR
STARTCHAR Icircumflex
ENCODING 206
SWIDTH 422 0
DWIDTH 14 0
BBX 11 31 1 0
BITMAP
0600
0F00
1F80
3F80
19C0
1100
0000
0000
FFE0
FFE0
FFE0
0E00
0E00
0E00
0E00
0E00
0E00
0E00
0E00
0E00
0E00
0E00
0E00
0E00
0E00
0E00
0E00
0E00
FFE0
FFE0
FFE0
ENDCHAR
STARTCHAR Idieresis
ENCODING 207
SWIDTH 422 0
DWIDTH 14 0
BBX 11 29 1 0
BITMAP
70E0
71E0
71E0
0000
0000
0000
FFE0
FFE0
FFE0
0E00
0E00
0E00
0E00
0E00
0E00
0E00
0E00
0E00
0E00
0E00
0E00
0E00
0E00
0E00
0E00
0E00
FFE0
FFE0
FFE0
ENDCHAR
STARTCHAR Eth
ENCODING 208
SWIDTH 694 0
DWIDTH 22 0
BBX 18 23 2 0
BITMAP
FFFE00
FFFF00
FFFF80
1C03C0
1C01C0
1C01C0
1C01C0
1C01C0
1C01C0
1C01C0
FF81C0
FF81C0
FF81C0
1C01C0
1C01C0
1C01C0
1C01C0
1C01C0
1C01C0
1C03C0
FFFF80
FFFF00
FFFE00
ENDCHAR
STARTCHAR Ntilde
ENCODING 209
SWIDTH 634 0
DWIDTH 20 0
BBX 16 31 2 0
BITMAP
0210
0710
0FB8
1DF0
18E0
10C0
0000
0000
E007
F007
FC07
FE07
FF07
FF87
E7E7
E3F7
E1FF
E0FF
E07F
E01F
E00F
E007
E007
E007
E007
E007
E007
E007
E007
E007
E007
ENDCHAR
STARTCHAR Ograve
ENCODING 210
SWIDTH 624 0
DWIDTH 20 0
BBX 16 31 2 0
BITMAP
0100
0300
0380
01C0
00E0
0080
0000
0000
1FF8
3FFC
7FFE
F00F
E007
E007
E007
E007
E007
E007
E007
E007
E007
E007
E007
E007
E007
E007
E007
F00F
7FFE
3FFC
1FF8
ENDCHAR
STARTCHAR Oacute
ENCODING 211
SWIDTH 624 0
DWIDTH 20 0
BBX 16 31 2 0
BITMAP
0080
00C0
01E0
0380
0300
0200
0000
0000
1FF8
3FFC
7FFE
F00F
E007
E007
E007
E007
E007
E007
E007
E007
E007
E007
E007
E007
E007
E007
E007
F00F
7FFE
3FFC
1FF8
ENDCHAR
STARTCHAR Ocircumflex
ENCODING 212
SWIDTH 624 0
DWIDTH 20 0
BBX 16 31 2 0
BITMAP
0180
03C0
03E0
07F0
0E60
0440
0000
0000
1FF8
3FFC
7FFE
F00F
E007
E007
E007
E007
E007
E007
E007
E007
E007
E007
E007
E007
E007
E007
E007
F00F
7FFE
3FFC
1FF8
ENDCHAR
STARTCHAR Otilde
ENCODING 213
SWIDTH 624 0
DWIDTH 20 0
BBX 16 31 2 0
BITMAP
0210
0710
0FB8
1DF0
18E0
10C0
0000
0000
1FF8
3FFC
7FFE
F00F
E007
E007
E007
E007
E007
E007
E007
E007
E007
E007
E007
E007
E007
E007
E007
F00F
7FFE
3FFC
1FF8
ENDCHAR
STARTCHAR Odieresis
ENCODING 214
SWIDTH 624 0
DWIDTH 20 0
BBX 16 29 2 0
BITMAP
1C38
1C38
1C38
0000
0000
0000
1FF8
3FFC
7FFE
F00F
E007
E007
E007
E007
E007
E007
E007
E007
E007
E007
E007
E007
E007
E007
E007
F00F
7FFE
3FFC
1FF8
ENDCHAR
STARTCHAR multiply
ENCODING 215
SWIDTH 633 0
DWIDTH 20 0
BBX 14 14 3 4
BITMAP
2010
7038
F87C
7CF8
3FF0
1FE0
0FC0
0FC0
1FE0
3FF0
7CF8
F87C
7038
2010
ENDCHAR
STARTCHAR Oslash
ENCODING 216
SWIDTH 624 0
DWIDTH 20 0
BBX 16 23 2 0
BITMAP
1FF8
3FFC
7FFE
F00F
E007
E007
E00F
E01F
E07F
E0FF
E1F7
E3C7
E787
FF07
FE07
F807
F007
E007
E007
F00F
7FFE
3FFC
1FF8
ENDCHAR
STARTCHAR Ugrave
ENCODING 217
SWIDTH 634 0
DWIDTH 20 0
BBX 16 31 2 0
BITMAP
0100
0300
0380
01C0
00E0
0080
0000
0000
0000
E007
E007
E007
E007
E007
E007
E007
E007
E007
E007
E007
E007
E007
E007
E007
E007
E007
E007
F00F
7FFF
3FFE
1FFC
ENDCHAR
STARTCHAR Uacute
ENCODING 218
SWIDTH 634 0
DWIDTH 20 0
BBX 16 31 2 0
BITMAP
0080
00C0
01E0
0380
0300
0200
0000
0000
0000
E007
E007
E007
E007
E007
E007
E007
E007
E007
E007
E007
E007
E007
E007
E007
E007
E007
E007
F00F
7FFF
3FFE
1FFC
ENDCHAR
STARTCHAR Ucircumflex
ENCODING 219
SWIDTH 634 0
DWIDTH 20 0
BBX 16 31 2 0
BITMAP
0180
03C0
03E0
07F0
0E60
0440
0000
0000
0000
E007
E007
E007
E007
E007
E007
E007
E007
E007
E007
E007
E007
E007
E007
E007
E007
E007
E007
F00F
7FFF
3FFE
1FFC
ENDCHAR
STARTCHAR Udieresis
ENCODING 220
SWIDTH 634 0
DWIDTH 20 0
BBX 16 29 2 0
BITMAP
1C38
1C38
1C38
0000
0000
0000
0000
E007
E007
E007
E007
E007
E007
E007
E007
E007
E007
E007
E007
E007
E007
E007
E007
E007
E007
F00F
7FFE
3FFC
1FF8
ENDCHAR
STARTCHAR Yacute
ENCODING 221
SWIDTH 584 0
DWIDTH 17 0
BBX 15 31 1 0
BITMAP
0080
00C0
01E0
0380
0180
0100
0000
0000
E00E
E00E
E00E
E00E
E00E
E00E
E00E
F01E
F01E
783C
3FF8
1FF0
0FE0
0380
0380
0380
0380
0380
0380
0380
0380
0380
0380
ENDCHAR
STARTCHAR Thorn
ENCODING 222
SWIDTH 634 0
DWIDTH 20 0
BBX 16 23 2 0
BITMAP
E000
E000
E000
E000
E000
FFF8
FFFC
FFFE
E00F
E007
E007
E007
E007
E007
E007
E00F
FFFE
FFFC
FFFC
E000
E000
E000
E000
ENDCHAR
STARTCHAR germandbls
ENCODING 223
SWIDTH 1033 0
DWIDTH 33 0
BBX 31 17 1 0
BITMAP
1FE00FF0
3FF01FF8
7FF83FFC
F03C781E
E01C700E
E01C700E
F0007800
7FE03FF0
3FF01FF8
1FF80FFC
003C001E
E01C700E
E01C700E
F03C781E
7FF83FFC
3FF01FF8
1FE00FF0
ENDCHAR
STARTCHAR agrave
ENCODING 224
SWIDTH 564 0
DWIDTH 18 0
BBX 14 26 2 0
BITMAP
0200
0600
0700
0380
0180
0000
0000
0000
0000
0780
0FC0
1FE0
3FF0
7DF8
F87C
F03C
E01C
E01C
E01C
FFFC
FFFC
FFFC
E01C
E01C
E01C
E01C
ENDCHAR
STARTCHAR aacute
ENCODING 225
SWIDTH 564 0
DWIDTH 18 0
BBX 14 26 2 0
BITMAP
0100
0180
0380
0700
0600
0000
0000
0000
0000
0780
0FC0
1FE0
3FF0
7DF8
F87C
F03C
E01C
E01C
E01C
FFFC
FFFC
FFFC
E01C
E01C
E01C
E01C
ENDCHAR
STARTCHAR acircumflex
ENCODING 226
SWIDTH 564 0
DWIDTH 18 0
BBX 14 26 2 0
BITMAP
0300
0780
0FC0
1FE0
0CC0
0000
0000
0000
0000
0780
0FC0
1FE0
3FF0
7DF8
F87C
F03C
E01C
E01C
E01C
FFFC
FFFC
FFFC
E01C
E01C
E01C
E01C
ENDCHAR
STARTCHAR atilde
ENCODING 227
SWIDTH 564 0
DWIDTH 18 0
BBX 14 26 2 0
BITMAP
0620
0E70
1FE0
3BC0
1180
0000
0000
0000
0000
0780
0FC0
1FE0
3FF0
7DF8
F87C
F03C
E01C
E01C
E01C
FFFC
FFFC
FFFC
E01C
E01C
E01C
E01C
ENDCHAR
STARTCHAR adieresis
ENCODING 228
SWIDTH 564 0
DWIDTH 18 0
BBX 14 24 2 0
BITMAP
3870
3870
3870
0000
0000
0000
0000
0780
0FC0
1FE0
3FF0
7DF8
F87C
F03C
E01C
E01C
E01C
FFFC
FFFC
FFFC
E01C
E01C
E01C
E01C
ENDCHAR
STARTCHAR aring
ENCODING 229
SWIDTH 564 0
DWIDTH 18 0
BBX 14 27 2 0
BITMAP
0780
0FC0
1FE0
1CE0
1860
1CE0
1FE0
0FC0
0780
0000
0780
0FC0
1FE0
3FF0
7DF8
F87C
F03C
E01C
E01C
E01C
FFFC
FFFC
FFFC
E01C
E01C
E01C
E01C
ENDCHAR
STARTCHAR ae
ENCODING 230
SWIDTH 724 0
DWIDTH 23 0
BBX 20 17 2 0
BITMAP
03FFF0
07FFF0
0FFFF0
1FE000
3CE000
78E000
F0E000
E0FFC0
E0FFC0
E0FFC0
FFE000
FFE000
FFE000
E0E000
E0FFF0
E0FFF0
E0FFF0
ENDCHAR
STARTCHAR ccedilla
ENCODING 231
SWIDTH 554 0
DWIDTH 17 0
BBX 14 24 2 -7
BITMAP
1FE0
3FF0
7FF8
F03C
E01C
E01C
E000
E000
E000
E000
E000
E01C
E01C
F03C
7FF8
3FF0
1FE0
03E0
03E0
03F0
0030
03F0
03E0
03E0
ENDCHAR
STARTCHAR egrave
ENCODING 232
SWIDTH 539 0
DWIDTH 17 0
BBX 14 26 2 0
BITMAP
0200
0700
0700
0380
01C0
0000
0000
0000
0000
FFFC
FFFC
FFFC
E000
E000
E000
E000
FFE0
FFE0
FFE0
E000
E000
E000
E000
FFFC
FFFC
FFFC
ENDCHAR
STARTCHAR eacute
ENCODING 233
SWIDTH 539 0
DWIDTH 17 0
BBX 14 26 2 0
BITMAP
0100
0180
03C0
0700
0600
0000
0000
0000
0000
FFFC
FFFC
FFFC
E000
E000
E000
E000
FFE0
FFE0
FFE0
E000
E000
E000
E000
FFFC
FFFC
FFFC
ENDCHAR
STARTCHAR ecircumflex
ENCODING 234
SWIDTH 539 0
DWIDTH 17 0
BBX 14 26 2 0
BITMAP
0300
0780
0FC0
0EE0
1C40
0000
0000
0000
0000
FFFC
FFFC
FFFC
E000
E000
E000
E000
FFE0
FFE0
FFE0
E000
E000
E000
E000
FFFC
FFFC
FFFC
ENDCHAR
STARTCHAR edieresis
ENCODING 235
SWIDTH 539 0
DWIDTH 17 0
BBX 14 24 2 0
BITMAP
3C70
3C70
3C70
0000
0000
0000
0000
FFFC
FFFC
FFFC
E000
E000
E000
E000
FFE0
FFE0
FFE0
E000
E000
E000
E000
FFFC
FFFC
FFFC
ENDCHAR
STARTCHAR igrave
ENCODING 236
SWIDTH 362 0
DWIDTH 12 0
BBX 9 26 1 0
BITMAP
1000
1800
3C00
0E00
0400
0000
0000
0000
0000
FF80
FF80
FF80
1C00
1C00
1C00
1C00
1C00
1C00
1C00
1C00
1C00
1C00
1C00
FF80
FF80
FF80
ENDCHAR
STARTCHAR iacute
ENCODING 237
SWIDTH 362 0
DWIDTH 12 0
BBX 9 26 1 0
BITMAP
0400
0E00
1E00
1C00
3800
0000
0000
0000
0000
FF80
FF80
FF80
1C00
1C00
1C00
1C00
1C00
1C00
1C00
1C00
1C00
1C00
1C00
FF80
FF80
FF80
ENDCHAR
STARTCHAR icircumflex
ENCODING 238
SWIDTH 362 0
DWIDTH 12 0
BBX 9 26 1 0
BITMAP
0C00
1E00
3F00
7700
2380
0000
0000
0000
0000
FF80
FF80
FF80
1C00
1C00
1C00
1C00
1C00
1C00
1C00
1C00
1C00
1C00
1C00
FF80
FF80
FF80
ENDCHAR
STARTCHAR idieresis
ENCODING 239
SWIDTH 382 0
DWIDTH 12 0
BBX 9 24 2 0
BITMAP
E380
E380
E380
0000
0000
0000
0000
FF80
FF80
FF80
1C00
1C00
1C00
1C00
1C00
1C00
1C00
1C00
1C00
1C00
1C00
FF80
FF80
FF80
ENDCHAR
STARTCHAR eth
ENCODING 240
SWIDTH 594 0
DWIDTH 19 0
BBX 16 17 1 0
BITMAP
FFF8
FFFC
FFFE
1C0F
1C07
1C07
1C07
FF87
FF87
FF87
1C07
1C07
1C07
1C0F
FFFE
FFFC
FFF8
ENDCHAR
STARTCHAR ntilde
ENCODING 241
SWIDTH 574 0
DWIDTH 18 0
BBX 14 26 2 0
BITMAP
0620
0F30
1F70
1BE0
39C0
0000
0000
0000
0000
F01C
F81C
FC1C
FE1C
FF9C
EFDC
E7FC
E3FC
E0FC
E07C
E03C
E01C
E01C
E01C
E01C
E01C
E01C
ENDCHAR
STARTCHAR ograve
ENCODING 242
SWIDTH 564 0
DWIDTH 18 0
BBX 14 26 2 0
BITMAP
0200
0600
0700
0380
0180
0000
0000
0000
0000
1FE0
3FF0
7FF8
F03C
E01C
E01C
E01C
E01C
E01C
E01C
E01C
E01C
E01C
F03C
7FF8
3FF0
1FE0
ENDCHAR
STARTCHAR oacute
ENCODING 243
SWIDTH 564 0
DWIDTH 18 0
BBX 14 26 2 0
BITMAP
0100
0180
0380
0700
0600
0000
0000
0000
0000
1FE0
3FF0
7FF8
F03C
E01C
E01C
E01C
E01C
E01C
E01C
E01C
E01C
E01C
F03C
7FF8
3FF0
1FE0
ENDCHAR
STARTCHAR ocircumflex
ENCODING 244
SWIDTH 564 0
DWIDTH 18 0
BBX 14 26 2 0
BITMAP
0300
0780
0FC0
1FE0
0CC0
0000
0000
0000
0000
1FE0
3FF0
7FF8
F03C
E01C
E01C
E01C
E01C
E01C
E01C
E01C
E01C
E01C
F03C
7FF8
3FF0
1FE0
ENDCHAR
STARTCHAR otilde
ENCODING 245
SWIDTH 564 0
DWIDTH 18 0
BBX 14 26 2 0
BITMAP
0620
0E70
1FE0
3BC0
1180
0000
0000
0000
0000
1FE0
3FF0
7FF8
F03C
E01C
E01C
E01C
E01C
E01C
E01C
E01C
E01C
E01C
F03C
7FF8
3FF0
1FE0
ENDCHAR
STARTCHAR odieresis
ENCODING 246
SWIDTH 564 0
DWIDTH 18 0
BBX 14 24 2 0
BITMAP
3870
3870
3870
0000
0000
0000
0000
1FE0
3FF0
7FF8
F03C
E01C
E01C
E01C
E01C
E01C
E01C
E01C
E01C
E01C
F03C
7FF8
3FF0
1FE0
ENDCHAR
STARTCHAR divide
ENCODING 247
SWIDTH 633 0
DWIDTH 20 0
BBX 16 14 2 4
BITMAP
01C0
01C0
01C0
0000
0000
FFFF
FFFF
FFFF
0000
0000
0000
01C0
01C0
01C0
ENDCHAR
STARTCHAR oslash
ENCODING 248
SWIDTH 564 0
DWIDTH 18 0
BBX 14 17 2 0
BITMAP
1FE0
3FF0
7FF8
F03C
E01C
E03C
E0FC
E3FC
EFFC
FF9C
FC1C
F01C
E01C
F03C
7FF8
3FF0
1FE0
ENDCHAR
STARTCHAR ugrave
ENCODING 249
SWIDTH 574 0
DWIDTH 18 0
BBX 14 26 2 0
BITMAP
0200
0700
0700
0380
01C0
0000
0000
0000
0000
E01C
E01C
E01C
E01C
E01C
E01C
E01C
E01C
E01C
E01C
E01C
E01C
E01C
F03C
7FFC
3FF8
1FF0
ENDCHAR
STARTCHAR uacute
ENCODING 250
SWIDTH 574 0
DWIDTH 18 0
BBX 14 26 2 0
BITMAP
0100
0180
03C0
0700
0600
0000
0000
0000
0000
E01C
E01C
E01C
E01C
E01C
E01C
E01C
E01C
E01C
E01C
E01C
E01C
E01C
F03C
7FFC
3FF8
1FF0
ENDCHAR
STARTCHAR ucircumflex
ENCODING 251
SWIDTH 574 0
DWIDTH 18 0
BBX 14 26 2 0
BITMAP
0300
0780
0FC0
1FE0
0CC0
0000
0000
0000
0000
E01C
E01C
E01C
E01C
E01C
E01C
E01C
E01C
E01C
E01C
E01C
E01C
E01C
F03C
7FFC
3FF8
1FF0
ENDCHAR
STARTCHAR udieresis
ENCODING 252
SWIDTH 574 0
DWIDTH 18 0
BBX 14 24 2 0
BITMAP
3C70
3C70
3C70
0000
0000
0000
0000
E01C
E01C
E01C
E01C
E01C
E01C
E01C
E01C
E01C
E01C
E01C
E01C
E01C
F03C
7FFC
3FF8
1FF0
ENDCHAR
STARTCHAR yacute
ENCODING 253
SWIDTH 524 0
DWIDTH 16 0
BBX 14 26 1 0
BITMAP
0100
0180
03C0
0700
0200
0000
0000
0000
0000
E01C
E01C
E01C
E01C
F03C
F87C
7CF8
3FF0
1FE0
07C0
0380
0380
0380
0380
0380
0380
0380
ENDCHAR
STARTCHAR thorn
ENCODING 254
SWIDTH 574 0
DWIDTH 18 0
BBX 14 17 2 0
BITMAP
E000
E000
FFE0
FFF0
FFF8
E03C
E01C
E01C
E01C
E01C
E03C
FFF8
FFF0
FFE0
E000
E000
E000
ENDCHAR
STARTCHAR ydieresis
ENCODING 255
SWIDTH 524 0
DWIDTH 16 0
BBX 14 24 1 0
BITMAP
1C70
1C70
1C70
0000
0000
0000
0000
E01C
E01C
E01C
E01C
F03C
F87C
7CF8
3FF0
1FE0
07C0
0380
0380
0380
0380
0380
0380
0380
ENDCHAR
STARTCHAR dotlessi
ENCODING 305
SWIDTH 362 0
DWIDTH 12 0
BBX 9 17 1 0
BITMAP
FF80
FF80
FF80
1C00
1C00
1C00
1C00
1C00
1C00
1C00
1C00
1C00
1C00
1C00
FF80
FF80
FF80
ENDCHAR
STARTCHAR Lslash
ENCODING 321
SWIDTH 553 0
DWIDTH 18 0
BBX 15 23 0 0
BITMAP
3800
3800
3800
3800
3800
3800
3900
3B00
3F00
3F00
3F00
3C00
F800
F800
F800
F800
B800
3800
3800
3800
3FFE
3FFE
3FFE
ENDCHAR
STARTCHAR lslash
ENCODING 322
SWIDTH 428 0
DWIDTH 14 0
BBX 13 17 0 0
BITMAP
3800
3800
3900
3B00
3F00
3F00
3F00
3E00
7800
F800
F800
F800
B800
3800
3FF8
3FF8
3FF8
ENDCHAR
STARTCHAR OE
ENCODING 338
SWIDTH 995 0
DWIDTH 32 0
BBX 29 23 2 0
BITMAP
1FFFFFF8
3FFFFFF8
7FFFFFF8
F00F0000
E0070000
E0070000
E0070000
E0070000
E0070000
E0070000
E007FFC0
E007FFC0
E007FFC0
E0070000
E0070000
E0070000
E0070000
E0070000
E0070000
F00F0000
7FFFFFF8
3FFFFFF8
1FFFFFF8
ENDCHAR
STARTCHAR oe
ENCODING 339
SWIDTH 875 0
DWIDTH 28 0
BBX 25 17 2 0
BITMAP
1FFFFF80
3FFFFF80
7FFFFF80
F03C0000
E01C0000
E01C0000
E01C0000
E01FFC00
E01FFC00
E01FFC00
E01C0000
E01C0000
E01C0000
F03C0000
7FFFFF80
3FFFFF80
1FFFFF80
ENDCHAR
STARTCHAR Scaron
ENCODING 352
SWIDTH 584 0
DWIDTH 18 0
BBX 16 31 1 0
BITMAP
0210
0338
07F8
01F0
00E0
00C0
0000
0000
1FF8
3FFC
7FFE
F00F
E007
E007
E000
E000
E000
F000
7FF8
3FFC
1FFE
000F
0007
0007
0007
E007
E007
F00F
7FFE
3FFC
1FF8
ENDCHAR
STARTCHAR scaron
ENCODING 353
SWIDTH 524 0
DWIDTH 16 0
BBX 14 26 1 0
BITMAP
0840
1CE0
0FC0
07C0
0780
0000
0000
0000
0000
3FF0
3FF8
7FFC
F03C
E01C
E01C
F000
7FE0
3FF0
1FF8
003C
E01C
E01C
F03C
FFF8
7FF0
3FF0
ENDCHAR
STARTCHAR Ydieresis
ENCODING 376
SWIDTH 584 0
DWIDTH 17 0
BBX 15 29 1 0
BITMAP
0F1C
0F1C
0F1C
0000
0000
0000
E00E
E00E
E00E
E00E
E00E
E00E
E00E
F01E
F01E
783C
3FF8
1FF0
0FE0
0380
0380
0380
0380
0380
0380
0380
0380
0380
0380
ENDCHAR
STARTCHAR Zcaron
ENCODING 381
SWIDTH 584 0
DWIDTH 18 0
BBX 16 31 1 0
BITMAP
0420
0630
0F70
03E0
01C0
0080
0000
0000
FFFF
FFFF
FFFF
0007
0007
000F
001F
003E
007C
00F8
03F0
07E0
0F80
1F00
3E00
7C00
F800
F000
E000
E000
FFFF
FFFF
FFFF
ENDCHAR
STARTCHAR zcaron
ENCODING 382
SWIDTH 524 0
DWIDTH 17 0
BBX 14 26 1 0
BITMAP
0840
0CE0
0FE0
07C0
0380
0000
0000
0000
0000
FFFC
FFFC
FFFC
001C
007C
00F8
01F0
03E0
0FC0
1F00
3E00
FC00
F000
E000
FFFC
FFFC
FFFC
ENDCHAR
STARTCHAR florin
ENCODING 402
SWIDTH 453 0
DWIDTH 15 0
BBX 15 29 -1 -6
BITMAP
007E
00FE
01FE
03C0
0380
0380
0380
0380
0380
0380
3FF8
3FF8
3FF8
0380
0380
0380
0380
0380
0380
0380
0380
0380
0380
0380
0380
0780
FF00
FE00
FC00
ENDCHAR
STARTCHAR circumflex
ENCODING 710
SWIDTH 354 0
DWIDTH 11 0
BBX 8 5 2 19
BITMAP
18
3C
7E
E7
42
ENDCHAR
STARTCHAR caron
ENCODING 711
SWIDTH 354 0
DWIDTH 11 0
BBX 8 5 2 19
BITMAP
42
E7
7E
3C
18
ENDCHAR
STARTCHAR breve
ENCODING 728
SWIDTH 634 0
DWIDTH 20 0
BBX 9 5 6 17
BITMAP
C180
E380
FF80
7F00
3E00
ENDCHAR
STARTCHAR dotaccent
ENCODING 729
SWIDTH 439 0
DWIDTH 14 0
BBX 3 3 5 21
BITMAP
E0
E0
E0
ENDCHAR
STARTCHAR ring
ENCODING 730
SWIDTH 634 0
DWIDTH 20 0
BBX 7 8 7 19
BITMAP
38
7C
FE
C6
C6
FE
7C
38
ENDCHAR
STARTCHAR ogonek
ENCODING 731
SWIDTH 412 0
DWIDTH 13 0
BBX 7 9 6 -6
BITMAP
1E
38
70
E0
C0
C0
FC
7C
7C
ENDCHAR
STARTCHAR tilde
ENCODING 732
SWIDTH 439 0
DWIDTH 14 0
BBX 10 5 2 19
BITMAP
1880
3DC0
7F80
EF00
4600
ENDCHAR
STARTCHAR hungarumlaut
ENCODING 733
SWIDTH 395 0
DWIDTH 13 0
BBX 9 3 3 21
BITMAP
3B80
7700
EE00
ENDCHAR
STARTCHAR Delta
ENCODING 916
SWIDTH 634 0
DWIDTH 20 0
BBX 16 23 2 0
BITMAP
03C0
07E0
07E0
0E70
0E70
1C78
1C38
3C3C
381C
781E
700E
F00F
F00F
E007
E007
E007
E007
E007
E007
E007
FFFF
FFFF
FFFF
ENDCHAR
STARTCHAR Omega
ENCODING 937
SWIDTH 679 0
DWIDTH 22 0
BBX 17 23 3 0
BITMAP
1FFC00
3FFE00
FFFF80
F00780
E00380
E00380
E00380
E00380
E00380
E00380
E00380
E00380
E00380
E00380
E00380
E00380
EE3B80
0E3800
1E3C00
3E3E00
FC1F80
F80F80
F00780
ENDCHAR
STARTCHAR mu.dup1
ENCODING 956
SWIDTH 634 0
DWIDTH 20 0
BBX 16 22 2 -6
BITMAP
E007
E007
E007
E007
E007
E007
E007
E007
E007
E007
E007
E007
E00F
FFFF
FFFE
FFFC
E000
E000
E000
E000
E000
E000
ENDCHAR
STARTCHAR pi
ENCODING 960
SWIDTH 634 0
DWIDTH 20 0
BBX 16 16 2 0
BITMAP
FFFF
FFFF
FFFF
700E
700E
700E
700E
700E
700E
700E
700E
700E
700E
700E
700E
700E
ENDCHAR
STARTCHAR endash
ENCODING 8211
SWIDTH 633 0
DWIDTH 20 0
BBX 16 3 2 8
BITMAP
FFFF
FFFF
FFFF
ENDCHAR
STARTCHAR emdash
ENCODING 8212
SWIDTH 794 0
DWIDTH 25 0
BBX 21 3 2 8
BITMAP
FFFFF8
FFFFF8
FFFFF8
ENDCHAR
STARTCHAR quoteleft
ENCODING 8216
SWIDTH 230 0
DWIDTH 7 0
BBX 3 6 2 17
BITMAP
E0
E0
E0
E0
E0
E0
ENDCHAR
STARTCHAR quoteright
ENCODING 8217
SWIDTH 230 0
DWIDTH 7 0
BBX 3 6 2 17
BITMAP
E0
E0
E0
E0
E0
E0
ENDCHAR
STARTCHAR quotesinglbase
ENCODING 8218
SWIDTH 230 0
DWIDTH 7 0
BBX 3 6 2 -3
BITMAP
E0
E0
E0
E0
E0
E0
ENDCHAR
STARTCHAR quotedblleft
ENCODING 8220
SWIDTH 432 0
DWIDTH 14 0
BBX 10 6 2 17
BITMAP
E1C0
E1C0
E1C0
E1C0
E1C0
E1C0
ENDCHAR
STARTCHAR quotedblright
ENCODING 8221
SWIDTH 432 0
DWIDTH 14 0
BBX 10 6 2 17
BITMAP
E1C0
E1C0
E1C0
E1C0
E1C0
E1C0
ENDCHAR
STARTCHAR quotedblbase
ENCODING 8222
SWIDTH 432 0
DWIDTH 14 0
BBX 10 6 2 -3
BITMAP
E1C0
E1C0
E1C0
E1C0
E1C0
E1C0
ENDCHAR
STARTCHAR dagger
ENCODING 8224
SWIDTH 634 0
DWIDTH 20 0
BBX 15 28 3 -5
BITMAP
0380
0380
0380
0380
0380
0380
0380
FFFE
FFFE
FFFE
0380
0380
0380
0380
0380
0380
0380
0380
0380
0380
0380
0380
0380
0380
0380
0380
0380
0380
ENDCHAR
STARTCHAR daggerdbl
ENCODING 8225
SWIDTH 634 0
DWIDTH 20 0
BBX 15 28 3 -5
BITMAP
0380
0380
0380
0380
0380
0380
0380
FFFE
FFFE
FFFE
0380
0380
0380
0380
0380
0380
FFFE
FFFE
FFFE
0380
0380
0380
0380
0380
0380
0380
0380
0380
ENDCHAR
STARTCHAR bullet
ENCODING 8226
SWIDTH 415 0
DWIDTH 13 0
BBX 6 6 4 8
BITMAP
FC
FC
FC
FC
FC
FC
ENDCHAR
STARTCHAR ellipsis
ENCODING 8230
SWIDTH 637 0
DWIDTH 20 0
BBX 15 3 3 0
BITMAP
E38E
E38E
E38E
ENDCHAR
STARTCHAR perthousand
ENCODING 8240
SWIDTH 634 0
DWIDTH 20 0
BBX 22 23 2 0
BITMAP
FC001C
FC001C
FC001C
FC001C
FC003C
FC00FC
0001F0
0007E0
001F80
003F00
00FC00
03F000
07E000
1F8000
3E0000
FC0000
F00000
E07FFC
E07FFC
E07FFC
E07FFC
E07FFC
E07FFC
ENDCHAR
STARTCHAR guilsinglleft
ENCODING 8249
SWIDTH 432 0
DWIDTH 14 0
BBX 9 16 2 2
BITMAP
0780
0F80
0F80
1E00
3C00
7800
F000
E000
E000
F000
7800
3C00
1E00
0F80
0F80
0780
ENDCHAR
STARTCHAR guilsinglright
ENCODING 8250
SWIDTH 432 0
DWIDTH 13 0
BBX 9 16 2 2
BITMAP
F000
F000
F800
3C00
1E00
0F00
0780
0380
0380
0780
0F00
1E00
3C00
F800
F800
F000
ENDCHAR
STARTCHAR fraction
ENCODING 8260
SWIDTH 634 0
DWIDTH 20 0
BBX 16 23 2 0
BITMAP
0007
0007
0007
0007
0007
000F
001F
003E
007C
00F8
01F0
03E0
0780
1F00
3E00
7C00
F800
F000
E000
E000
E000
E000
E000
ENDCHAR
STARTCHAR Euro
ENCODING 8364
SWIDTH 634 0
DWIDTH 20 0
BBX 18 23 0 0
BITMAP
07FF00
0FFF80
1FFFC0
3C03C0
3801C0
3801C0
380000
380000
FFF000
FFF000
FFF000
380000
380000
FFF000
FFF000
FFF000
380000
3801C0
3801C0
3C03C0
1FFFC0
0FFF80
07FF00
ENDCHAR
STARTCHAR trademark
ENCODING 8482
SWIDTH 935 0
DWIDTH 30 0
BBX 26 13 2 10
BITMAP
FFF381C0
FFF3C3C0
FFF3C3C0
0603E7C0
0603E7C0
06037EC0
06033CC0
06033CC0
060318C0
060300C0
060300C0
060300C0
06000000
ENDCHAR
STARTCHAR Omega.dup2
ENCODING 8486
SWIDTH 679 0
DWIDTH 22 0
BBX 17 23 3 0
BITMAP
1FFC00
3FFE00
FFFF80
F00780
E00380
E00380
E00380
E00380
E00380
E00380
E00380
E00380
E00380
E00380
E00380
E00380
EE3B80
0E3800
1E3C00
3E3E00
FC1F80
F80F80
F00780
ENDCHAR
STARTCHAR partialdiff
ENCODING 8706
SWIDTH 634 0
DWIDTH 20 0
BBX 16 23 2 0
BITMAP
7FF8
7FFC
7FFE
000F
0007
0007
0007
0007
0007
1FFF
3FFF
7FFF
F007
E007
E007
E007
E007
E007
E007
F00F
7FFE
3FFC
1FF8
ENDCHAR
STARTCHAR Delta.dup3
ENCODING 8710
SWIDTH 634 0
DWIDTH 20 0
BBX 16 23 2 0
BITMAP
03C0
07E0
07E0
0E70
0E70
1C78
1C38
3C3C
381C
781E
700E
F00F
F00F
E007
E007
E007
E007
E007
E007
E007
FFFF
FFFF
FFFF
ENDCHAR
STARTCHAR product
ENCODING 8719
SWIDTH 634 0
DWIDTH 20 0
BBX 16 23 2 0
BITMAP
FFFF
FFFF
FFFF
E007
E007
E007
E007
E007
E007
E007
E007
E007
E007
E007
E007
E007
E007
E007
E007
E007
E007
E007
E007
ENDCHAR
STARTCHAR summation
ENCODING 8721
SWIDTH 634 0
DWIDTH 20 0
BBX 16 23 2 0
BITMAP
FFFF
FFFF
FFFF
E000
F000
F800
7C00
3E00
1F80
07C0
03E0
01E0
03F0
07C0
0F80
1F00
7E00
F800
F000
E000
FFFF
FFFF
FFFF
ENDCHAR
STARTCHAR minus
ENCODING 8722
SWIDTH 633 0
DWIDTH 20 0
BBX 16 3 2 10
BITMAP
FFFF
FFFF
FFFF
ENDCHAR
STARTCHAR radical
ENCODING 8730
SWIDTH 643 0
DWIDTH 21 0
BBX 21 23 0 0
BITMAP
0000F8
0000F0
0000E0
0001E0
0001E0
0003C0
0003C0
000780
000780
000700
000F00
000E00
F01E00
781C00
783C00
383800
3C3800
1C7800
1E7000
0EF000
0FE000
07E000
07C000
ENDCHAR
STARTCHAR infinity
ENCODING 8734
SWIDTH 805 0
DWIDTH 26 0
BBX 22 11 2 5
BITMAP
1FCFE0
3FFFF0
7FFFF8
F0F83C
E0701C
E0701C
E0701C
F0F83C
7FFFF8
3FFFF0
1FCFE0
ENDCHAR
STARTCHAR integral
ENCODING 8747
SWIDTH 468 0
DWIDTH 15 0
BBX 13 29 0 -6
BITMAP
0038
0038
0038
0038
0038
0038
0038
0038
0038
0038
0038
0038
0038
0038
0038
0038
0038
0038
0038
0038
0038
0038
0038
E038
E038
F078
7FF0
3FE0
1FC0
ENDCHAR
STARTCHAR notequal
ENCODING 8800
SWIDTH 634 0
DWIDTH 20 0
BBX 16 15 2 4
BITMAP
0078
0070
00F0
FFFF
FFFF
FFFF
01C0
03C0
0380
FFFF
FFFF
FFFF
0F00
0E00
1E00
ENDCHAR
STARTCHAR lessequal
ENCODING 8804
SWIDTH 432 0
DWIDTH 14 0
BBX 9 18 2 0
BITMAP
0780
0F80
0F80
1E00
3C00
7800
F000
E000
E000
F000
7800
3C00
9E00
8F80
CF80
E780
F000
7C00
ENDCHAR
STARTCHAR greaterequal
ENCODING 8805
SWIDTH 432 0
DWIDTH 13 0
BBX 9 18 2 0
BITMAP
F000
F000
F800
3C00
1E00
0F00
0780
0380
0380
0780
0F00
1E00
3C80
F880
F980
F380
0780
1F00
ENDCHAR
STARTCHAR lozenge
ENCODING 9674
SWIDTH 579 0
DWIDTH 19 0
BBX 15 23 2 0
BITMAP
07C0
0FC0
0FE0
1EE0
1CF0
1C70
3878
3838
783C
703C
F01E
F01E
F01E
703C
783C
3838
3878
1C70
1CF0
1EE0
0FE0
0FC0
07C0
ENDCHAR
STARTCHAR fi
ENCODING 64257
SWIDTH 811 0
DWIDTH 26 0
BBX 23 17 2 0
BITMAP
FFF3FE
FFF3FE
FFF3FE
E00070
E00070
E00070
E00070
FF8070
FF8070
FF8070
E00070
E00070
E00070
E00070
E003FE
E003FE
E003FE
ENDCHAR
STARTCHAR fl
ENCODING 64258
SWIDTH 851 0
DWIDTH 27 0
BBX 25 17 2 0
BITMAP
FFF38000
FFF38000
FFF38000
E0038000
E0038000
E0038000
E0038000
FF838000
FF838000
FF838000
E0038000
E0038000
E0038000
E0038000
E003FF80
E003FF80
E003FF80
ENDCHAR
STARTCHAR .notdef
ENCODING -1
SWIDTH 300 0
DWIDTH 10 0
BBX 1 1 0 0
BITMAP
00
ENDCHAR
STARTCHAR .null
ENCODING -1
SWIDTH 0 0
DWIDTH 0 0
BBX 1 1 0 0
BITMAP
00
ENDCHAR
STARTCHAR nonmarkingreturn
ENCODING -1
SWIDTH 300 0
DWIDTH 10 0
BBX 1 1 0 0
BITMAP
00
ENDCHAR
STARTCHAR apple
ENCODING -1
SWIDTH 686 0
DWIDTH 22 0
BBX 19 22 1 0
BITMAP
5DFFE0
AFFAA0
7FFAA0
000000
FFFFE0
FFFFE0
FFBFE0
FFBFE0
FF2FE0
FE0FE0
FB0BE0
E110E0
F000E0
E001E0
F803E0
FC07E0
FFBFE0
FFBFE0
FFBFE0
FFFFE0
FFFFE0
FFFFE0
ENDCHAR
ENDFONT
